#!OML:ASF H:\Pregnant\Project 1\Capture day 1\Session 1\femalepreg.ASF
:FULLY-SPECIFIED
:DEGREES
1567
root 7.23195 0.705029 26.233 76.4301 -42.2331 -183.125
lowerback 21.4648 0.645528 9.46664
upperback 1.67742 2.41973 -4.22628
thorax -9.57397 0.536294 -10.9403
lowerneck -18.7795 19.1134 27.0833
upperneck 26.7225 24.1801 -13.3835
head 18.2449 10.7757 -4.2561
rclavicle -7.15625e-015 3.20043e-014
rhumerus -45.2648 1.2157 -73.1357
rradius 19.5323
rwrist 13.4138
rhand -10.4664 -11.3876
rfingers 7.12502
rthumb 15.5344 -40.7836
lclavicle -7.15625e-015 3.20043e-014
lhumerus -67.0788 -50.1517 99.1979
lradius 39.3454
lwrist 38.8163
lhand -5.576 379.81
lfingers 7.12502
lthumb 20.2399 48.7753
rfemur 6.52513 22.6398 15.6054
rtibia 27.7951
rfoot 24.8502 -4.77454
rtoes 14.5931
lfemur 15.693 350.928 343.306
ltibia 11.0333
lfoot 19.649 -371.511
ltoes -36.6558
1568
root 7.23182 0.703512 26.2357 76.5491 -42.1854 -183.156
lowerback 21.4181 0.617375 9.44533
upperback 1.57561 2.39458 -4.14648
thorax -9.67619 0.519885 -10.8302
lowerneck -18.2847 19.1553 27.1034
upperneck 26.583 24.4418 -13.5867
head 18.1777 10.8682 -4.29972
rclavicle -4.77083e-014 -4.47266e-016
rhumerus -45.3359 1.59574 -73.1795
rradius 19.5593
rwrist 13.2248
rhand -10.4392 -11.4135
rfingers 7.12502
rthumb 15.5607 -40.8075
lclavicle -4.77083e-014 -4.47266e-016
lhumerus -67.1908 -49.906 99.2962
lradius 39.3275
lwrist 38.8004
lhand -5.5755 379.836
lfingers 7.12502
lthumb 20.2404 48.8017
rfemur 6.41484 22.726 15.6472
rtibia 27.7582
rfoot 24.7415 -4.88783
rtoes 15.0533
lfemur 15.3479 350.925 343.369
ltibia 11.4744
lfoot 19.4443 -371.445
ltoes -36.3909
1569
root 7.23169 0.702112 26.2386 76.6615 -42.1388 -183.187
lowerback 21.3735 0.585415 9.41429
upperback 1.4811 2.36185 -4.06405
thorax -9.7735 0.500944 -10.7089
lowerneck -17.8157 19.2017 27.1323
upperneck 26.4564 24.699 -13.7829
head 18.1228 10.9599 -4.34105
rclavicle -1.03368e-013 1.09779e-013
rhumerus -45.3925 1.99479 -73.2308
rradius 19.588
rwrist 13.0255
rhand -10.4058 -11.4419
rfingers 7.12502
rthumb 15.5929 -40.8334
lclavicle -1.03368e-013 1.09779e-013
lhumerus -67.2703 -49.6326 99.3656
lradius 39.3015
lwrist 38.7681
lhand -5.57797 379.86
lfingers 7.12502
lthumb 20.238 48.8253
rfemur 6.30136 22.7947 15.6856
rtibia 27.7394
rfoot 24.64 -4.94496
rtoes 15.3588
lfemur 15.0311 350.925 343.43
ltibia 11.8776
lfoot 19.2589 -371.385
ltoes -36.1116
1570
root 7.23216 0.700866 26.2424 76.782 -42.0906 -183.222
lowerback 21.321 0.55161 9.37209
upperback 1.38605 2.32447 -3.97375
thorax -9.86891 0.480914 -10.57
lowerneck -17.3593 19.2474 27.1589
upperneck 26.3372 24.9489 -13.9694
head 18.0712 11.0498 -4.37945
rclavicle 4.77083e-015 -4.39314e-014
rhumerus -45.4422 2.43641 -73.2943
rradius 19.6201
rwrist 12.7983
rhand -10.3692 -11.4761
rfingers 7.12502
rthumb 15.6281 -40.8648
lclavicle 4.77083e-015 -4.39314e-014
lhumerus -67.3293 -49.3257 99.421
lradius 39.2671
lwrist 38.7161
lhand -5.58198 379.877
lfingers 7.12502
lthumb 20.2342 48.8436
rfemur 6.16689 22.8333 15.7194
rtibia 27.7472
rfoot 24.5686 -4.84248
rtoes 15.2104
lfemur 14.7396 350.921 343.491
ltibia 12.2257
lfoot 19.1022 -371.328
ltoes -35.8105
1571
root 7.2332 0.699879 26.2466 76.8979 -42.0417 -183.256
lowerback 21.2689 0.518859 9.32847
upperback 1.29518 2.28762 -3.88387
thorax -9.95939 0.461697 -10.4308
lowerneck -16.9293 19.2901 27.1815
upperneck 26.2245 25.1811 -14.1385
head 18.0203 11.1345 -4.41349
rclavicle 2.62396e-014 9.61621e-014
rhumerus -45.4907 2.86968 -73.3574
rradius 19.653
rwrist 12.5739
rhand -10.3288 -11.5079
rfingers 7.12502
rthumb 15.667 -40.8936
lclavicle 2.62396e-014 9.61621e-014
lhumerus -67.3848 -49.0253 99.4737
lradius 39.2343
lwrist 38.6618
lhand -5.57288 379.89
lfingers 7.12502
lthumb 20.2429 48.8556
rfemur 6.02316 22.8426 15.7531
rtibia 27.7835
rfoot 24.5096 -4.68087
rtoes 14.8954
lfemur 14.4834 350.917 343.553
ltibia 12.517
lfoot 18.9684 -371.277
ltoes -35.4992
1572
root 7.23473 0.699268 26.2512 77.008 -41.9922 -183.291
lowerback 21.2086 0.495773 9.31644
upperback 1.2271 2.26515 -3.81834
thorax -10.0132 0.449976 -10.3409
lowerneck -16.602 19.335 27.1933
upperneck 26.1327 25.3771 -14.2664
head 17.9826 11.2055 -4.43191
rclavicle 5.08889e-014 -3.88624e-014
rhumerus -45.5221 3.17486 -73.4039
rradius 19.6759
rwrist 12.4126
rhand -10.2914 -11.5302
rfingers 7.12502
rthumb 15.7031 -40.913
lclavicle 5.08889e-014 -3.88624e-014
lhumerus -67.4152 -48.81 99.4996
lradius 39.2097
lwrist 38.6223
lhand -5.56101 379.906
lfingers 7.12502
lthumb 20.2543 48.87
rfemur 5.877 22.8292 15.7901
rtibia 27.8436
rfoot 24.4634 -4.47714
rtoes 14.455
lfemur 14.2614 350.915 343.613
ltibia 12.7642
lfoot 18.8488 -371.212
ltoes -35.1525
1573
root 7.23639 0.698818 26.2556 77.1137 -41.9449 -183.325
lowerback 21.1547 0.470089 9.28629
upperback 1.15279 2.2371 -3.74303
thorax -10.08 0.435779 -10.2282
lowerneck -16.2511 19.371 27.1994
upperneck 26.0357 25.5645 -14.3907
head 17.9337 11.2752 -4.45278
rclavicle -3.97569e-015 -9.05464e-014
rhumerus -45.5612 3.52782 -73.4566
rradius 19.7017
rwrist 12.232
rhand -10.2502 -11.5524
rfingers 7.12502
rthumb 15.7427 -40.9322
lclavicle -3.97569e-015 -9.05464e-014
lhumerus -67.455 -48.5614 99.5347
lradius 39.1814
lwrist 38.5663
lhand -5.53782 379.918
lfingers 7.12502
lthumb 20.2766 48.8796
rfemur 5.7299 22.8177 15.8288
rtibia 27.9178
rfoot 24.4114 -4.31494
rtoes 14.1456
lfemur 14.0567 350.91 343.669
ltibia 12.9886
lfoot 18.7333 -371.148
ltoes -34.8362
1574
root 7.23788 0.698497 26.2596 77.2189 -41.9002 -183.362
lowerback 21.0907 0.455627 9.2888
upperback 1.09861 2.22533 -3.69565
thorax -10.1116 0.429515 -10.1702
lowerneck -16.0001 19.4084 27.1975
upperneck 25.9623 25.7163 -14.4759
head 17.8993 11.3313 -4.45933
rclavicle 8.74653e-014 -7.90666e-014
rhumerus -45.5841 3.73408 -73.4836
rradius 19.7146
rwrist 12.1342
rhand -10.2169 -11.5594
rfingers 7.12502
rthumb 15.7748 -40.9366
lclavicle 8.74653e-014 -7.90666e-014
lhumerus -67.4757 -48.4051 99.5459
lradius 39.1636
lwrist 38.5269
lhand -5.51212 379.934
lfingers 7.12502
lthumb 20.3013 48.8932
rfemur 5.58331 22.8218 15.8686
rtibia 27.9965
rfoot 24.3516 -4.21683
rtoes 14.0499
lfemur 13.857 350.905 343.723
ltibia 13.2105
lfoot 18.6137 -371.079
ltoes -34.5373
1575
root 7.23899 0.698177 26.263 77.3184 -41.8589 -183.401
lowerback 21.0208 0.45159 9.32365
upperback 1.06685 2.22883 -3.6763
thorax -10.1082 0.430682 -10.1666
lowerneck -15.8438 19.4489 27.1952
upperneck 25.9066 25.8375 -14.5317
head 17.8799 11.3751 -4.4554
rclavicle 3.33958e-014 4.13472e-014
rhumerus -45.5868 3.79555 -73.4852
rradius 19.7136
rwrist 12.1184
rhand -10.1874 -11.5523
rfingers 7.12502
rthumb 15.8031 -40.9273
lclavicle 3.33958e-014 4.13472e-014
lhumerus -67.4755 -48.3419 99.5336
lradius 39.1559
lwrist 38.5065
lhand -5.48487 379.957
lfingers 7.12502
lthumb 20.3275 48.9129
rfemur 5.44564 22.8437 15.9098
rtibia 28.0718
rfoot 24.2916 -4.14875
rtoes 14.0846
lfemur 13.6566 350.898 343.773
ltibia 13.4477
lfoot 18.4828 -371.014
ltoes -34.2728
1576
root 7.24005 0.697687 26.2661 77.4256 -41.8204 -183.44
lowerback 20.9455 0.449902 9.35146
upperback 1.03123 2.23388 -3.65449
thorax -10.1061 0.43286 -10.1562
lowerneck -15.6899 19.4838 27.1881
upperneck 25.8551 25.9494 -14.584
head 17.8593 11.4156 -4.4524
rclavicle 1.1291e-013 -3.07619e-014
rhumerus -45.5908 3.86031 -73.4823
rradius 19.7123
rwrist 12.1057
rhand -10.1627 -11.5472
rfingers 7.12502
rthumb 15.8269 -40.9203
lclavicle 1.1291e-013 -3.07619e-014
lhumerus -67.4782 -48.2741 99.5288
lradius 39.1482
lwrist 38.4825
lhand -5.46027 379.971
lfingers 7.12502
lthumb 20.3511 48.9251
rfemur 5.30127 22.8832 15.9478
rtibia 28.1419
rfoot 24.2341 -4.06648
rtoes 14.1141
lfemur 13.4365 350.892 343.822
ltibia 13.7041
lfoot 18.3413 -370.954
ltoes -34.0304
1577
root 7.24084 0.697049 26.269 77.537 -41.7849 -183.482
lowerback 20.8679 0.450417 9.38038
upperback 0.994933 2.24137 -3.63641
thorax -10.1027 0.436043 -10.1514
lowerneck -15.5387 19.5146 27.1883
upperneck 25.8033 26.0517 -14.637
head 17.8384 11.4534 -4.45344
rclavicle 0 4.67144e-014
rhumerus -45.5938 3.91089 -73.4765
rradius 19.7073
rwrist 12.1037
rhand -10.1416 -11.5382
rfingers 7.12502
rthumb 15.8473 -40.9096
lclavicle 0 4.67144e-014
lhumerus -67.4885 -48.2166 99.5297
lradius 39.1436
lwrist 38.4632
lhand -5.43778 379.98
lfingers 7.12502
lthumb 20.3727 48.9315
rfemur 5.15431 22.9408 15.9838
rtibia 28.2083
rfoot 24.1822 -3.96794
rtoes 14.1539
lfemur 13.2037 350.886 343.868
ltibia 13.9775
lfoot 18.19 -370.901
ltoes -33.8028
1578
root 7.24176 0.696266 26.272 77.6571 -41.7498 -183.523
lowerback 20.7834 0.451942 9.4019
upperback 0.954227 2.24904 -3.61205
thorax -10.101 0.439764 -10.1347
lowerneck -15.3821 19.5423 27.1861
upperneck 25.7531 26.1525 -14.6939
head 17.8174 11.4901 -4.45707
rclavicle 9.14409e-014 -4.49253e-014
rhumerus -45.5968 3.97661 -73.4674
rradius 19.7025
rwrist 12.0967
rhand -10.1204 -11.531
rfingers 7.12502
rthumb 15.8677 -40.9009
lclavicle 9.14409e-014 -4.49253e-014
lhumerus -67.5003 -48.146 99.5399
lradius 39.136
lwrist 38.4405
lhand -5.41947 379.977
lfingers 7.12502
lthumb 20.3903 48.9263
rfemur 4.99778 23.0039 16.0182
rtibia 28.2736
rfoot 24.1412 -3.78817
rtoes 13.9837
lfemur 12.9546 350.878 343.914
ltibia 14.2635
lfoot 18.0304 -370.849
ltoes -33.5749
1579
root 7.24273 0.695339 26.275 77.7827 -41.7141 -183.566
lowerback 20.6967 0.454369 9.42331
upperback 0.909537 2.25804 -3.58698
thorax -10.1023 0.443844 -10.1176
lowerneck -15.2228 19.5669 27.1913
upperneck 25.7051 26.2484 -14.7536
head 17.7977 11.5257 -4.46466
rclavicle -2.54444e-014 9.6659e-014
rhumerus -45.6033 4.04817 -73.4619
rradius 19.6975
rwrist 12.0857
rhand -10.0995 -11.523
rfingers 7.12502
rthumb 15.8878 -40.8913
lclavicle -2.54444e-014 9.6659e-014
lhumerus -67.5211 -48.0755 99.5584
lradius 39.1288
lwrist 38.4202
lhand -5.40189 379.963
lfingers 7.12502
lthumb 20.4072 48.9104
rfemur 4.83499 23.0749 16.0549
rtibia 28.3404
rfoot 24.089 -3.6037
rtoes 13.8129
lfemur 12.696 350.869 343.961
ltibia 14.5564
lfoot 17.8637 -370.801
ltoes -33.3457
1580
root 7.24377 0.694396 26.278 77.9149 -41.6771 -183.609
lowerback 20.6056 0.457423 9.44427
upperback 0.861549 2.26794 -3.5596
thorax -10.1048 0.448321 -10.0977
lowerneck -15.0652 19.5897 27.1982
upperneck 25.6635 26.341 -14.8111
head 17.7809 11.5604 -4.47269
rclavicle 2.54444e-014 -6.52014e-014
rhumerus -45.611 4.12586 -73.4576
rradius 19.6914
rwrist 12.0733
rhand -10.0798 -11.5148
rfingers 7.12502
rthumb 15.9068 -40.8815
lclavicle 2.54444e-014 -6.52014e-014
lhumerus -67.5484 -48.003 99.5861
lradius 39.1203
lwrist 38.4075
lhand -5.39552 379.948
lfingers 7.12502
lthumb 20.4134 48.8953
rfemur 4.66445 23.1519 16.0945
rtibia 28.4109
rfoot 24.0203 -3.44133
rtoes 13.6931
lfemur 12.4324 350.86 344.01
ltibia 14.8512
lfoot 17.6877 -370.742
ltoes -33.0806
